<?xml version="1.0" standalone="no"?><!DOCTYPE svg PUBLIC "-//W3C//DTD SVG 1.1//EN" "http://www.w3.org/Graphics/SVG/1.1/DTD/svg11.dtd"><svg t="1557196318562" class="icon" style="" viewBox="0 0 1024 1024" version="1.1" xmlns="http://www.w3.org/2000/svg" p-id="17152" xmlns:xlink="http://www.w3.org/1999/xlink" width="200" height="200"><defs><style type="text/css"></style></defs><path d="M794.79620013 352.92713718c-8.8373817 6.62803595-11.04672615 22.0934536-4.41869021 30.93083401l68.48970526 95.00184906c6.62803595 8.8373817 22.0934536 11.04672615 30.930834 4.4186902s11.04672615-22.0934536 4.4186902-30.930834L825.72703542 357.34582738c-4.4186902-6.62803595-19.88410785-11.04672615-30.93083529-4.4186902zM467.81309409 461.18505814c46.39625165-55.23363335 48.6055974-139.18875497 0-198.84107851-55.23363335-66.2803595-152.44482686-75.11774121-218.72518637-19.88410786s-75.11774121 152.44482686-19.88410785 218.72518637c48.6055974 57.4429778 130.35137327 72.90839547 194.42238703 35.34952421l66.2803595 83.95512291c8.8373817 11.04672615 26.51214381 13.2560719 39.7682157 4.41869021 11.04672615-8.8373817 13.2560719-26.51214381 4.4186915-39.76821572l-66.28035951-83.95512161z m-48.6055974-15.46541764c-46.39625165 39.7682157-117.09530135 33.14017975-154.65417262-15.46541765-39.7682157-46.39625165-33.14017975-117.09530135 15.46541766-154.65417132 46.39625165-39.7682157 117.09530135-33.14017975 154.65417261 15.46541635 37.55886996 46.39625165 30.93083402 117.09530135-15.46541765 154.65417262z" p-id="17153"></path><path d="M856.65786943 262.34397963h-4.4186902H668.86351707V180.59820247c0-24.30279805-19.88410785-44.18690591-44.1869059-44.1869059H70.13093706c-24.30279805 0-44.18690591 19.88410785-44.1869072 44.1869059v530.24287605c0 48.6055974 39.7682157 88.3738131 88.37381311 88.37381311h66.2803595c11.04672615 50.81494186 55.23363335 88.3738131 108.25792095 88.3738118s97.21119351-37.55886996 108.25791966-88.3738118h231.98125827c11.04672615 50.81494186 55.23363335 88.3738131 108.25792096 88.3738118s97.21119351-37.55886996 108.25792098-88.3738118h66.28035949c48.6055974 0 88.3738131-39.7682157 88.37381182-88.37381311V467.81309409c0-8.8373817 0-13.2560719-4.41869021-19.88410784l-123.72333731-176.74762623c-6.62803595-8.8373817-15.46541765-8.8373817-15.46541765-8.83738039zM291.06546788 843.40179753c-37.55886996 0-66.2803595-28.72148955-66.28035951-66.2803595s28.72148955-66.2803595 66.28035951-66.28035951 66.2803595 28.72148955 66.2803595 66.28035951-33.14017975 66.2803595-66.2803595 66.2803595z m448.49710018 0c-37.55886996 0-66.2803595-28.72148955-66.28035949-66.2803595s28.72148955-66.2803595 66.28035949-66.28035951 66.2803595 28.72148955 66.28035952 66.28035951-30.93083402 66.2803595-66.28035952 66.2803595z m214.30649488-154.65417261c0 35.3495255-24.30279805 66.2803595-61.86166801 66.2803595h-44.1869072c-11.04672615-50.81494186-55.23363335-88.3738131-108.25791967-88.3738118s-97.21119351 37.55886996-108.25792095 88.3738118H399.32338883c-11.04672615-50.81494186-55.23363335-88.3738131-108.25792095-88.3738118s-97.21119351 37.55886996-108.25791967 88.3738118h-44.1869072c-37.55886996 0-66.2803595-30.93083402-66.2803595-66.2803595v-97.21119351H363.97386335c11.04672615 0 22.0934536-11.04672615 22.09345359-22.09345361s-11.04672615-22.0934536-22.09345359-22.0934523H114.31784297c-24.30279805 0-44.18690591-19.88410785-44.18690591-44.1869072V224.78510837c0-24.30279805 19.88410785-44.18690591 44.18690591-44.1869059h468.38120674c24.30279805 0 44.18690591 19.88410785 44.18690721 44.1869059v344.65786943c0 11.04672615 11.04672615 22.0934536 22.0934523 22.09345361s22.0934536-11.04672615 22.0934536-22.09345361V306.53088553H843.40179753l110.46726541 161.28220856v220.93453083z" p-id="17154"></path></svg>