<?xml version="1.0" standalone="no"?><!DOCTYPE svg PUBLIC "-//W3C//DTD SVG 1.1//EN" "http://www.w3.org/Graphics/SVG/1.1/DTD/svg11.dtd"><svg t="1557114482091" class="icon" style="" viewBox="0 0 1025 1024" version="1.1" xmlns="http://www.w3.org/2000/svg" p-id="14027" xmlns:xlink="http://www.w3.org/1999/xlink" width="200.1953125" height="200"><defs><style type="text/css"></style></defs><path d="M850.944 558.592l3.072-6.144c26.112-52.224 39.424-107.52 39.424-164.864 0-50.688-10.24-99.84-29.696-145.92-18.944-44.544-46.592-84.992-81.408-119.296-34.816-34.304-75.776-61.44-120.832-80.384-47.104-19.456-96.768-29.696-148.48-29.696-51.712 0-101.376 9.728-148.48 29.696-45.568 18.944-86.016 46.08-121.344 80.384-34.816 34.304-62.464 74.752-81.408 119.296-19.968 46.08-29.696 95.232-29.696 145.92 0 57.344 13.312 112.64 39.424 164.864l3.072 6.144-154.112 263.168 2.56 0.512c37.888 7.68 111.616 22.528 184.32 37.376l4.096 1.024 2.56 3.072c50.176 55.808 100.352 112.128 123.392 137.728l1.536 2.048 141.824-242.176 13.312 1.024c12.8 1.024 24.576 1.024 37.376 0l13.312-1.024L686.08 1003.52l1.536-2.048c23.04-25.6 73.728-81.92 123.392-137.728l2.56-3.072 4.096-1.024c73.216-15.36 146.944-30.208 184.32-37.376l2.56-0.512-153.6-263.168z m-515.072 368.64l-11.264-10.752c-8.192-7.68-51.712-49.152-92.672-89.088l-1.024-0.512c-63.488-17.92-127.488-36.352-128.512-36.864l-15.36-4.608 110.08-187.392 11.264 14.336c52.736 68.608 128 117.76 212.48 138.24l15.872 4.096-100.864 172.544z m176.128-210.944c-182.784 0-331.776-148.992-331.776-332.8 0-183.296 148.992-332.288 331.776-332.288 182.784 0 331.776 148.992 331.776 332.288 0.512 183.808-148.48 332.8-331.776 332.8z m408.064 74.752c-10.24 3.072-68.608 19.456-126.464 36.352l-1.024 0.512c-45.056 44.032-92.16 88.576-92.672 89.088l-11.264 10.752-100.864-172.032 15.872-4.096c84.48-20.48 159.744-69.632 212.48-138.24l11.264-14.336 110.08 187.904-17.408 4.096z" fill="" p-id="14028"></path><path d="M512 172.544c-116.736 0-211.968 95.232-211.968 211.968s95.232 211.968 211.968 211.968 211.968-95.232 211.968-211.968c0-56.32-22.016-109.568-61.952-149.504-39.936-40.448-93.184-62.464-150.016-62.464z m0 384c-94.72 0-172.032-77.312-172.032-172.032s77.312-172.032 172.032-172.032 172.032 77.312 172.032 172.032c0.512 94.72-76.8 172.032-172.032 172.032z" fill="" p-id="14029"></path></svg>