<?xml version="1.0" encoding="UTF-8" standalone="no"?>
<svg
   xmlns:dc="http://purl.org/dc/elements/1.1/"
   xmlns:cc="http://creativecommons.org/ns#"
   xmlns:rdf="http://www.w3.org/1999/02/22-rdf-syntax-ns#"
   xmlns:svg="http://www.w3.org/2000/svg"
   xmlns="http://www.w3.org/2000/svg"
   xmlns:sodipodi="http://sodipodi.sourceforge.net/DTD/sodipodi-0.dtd"
   xmlns:inkscape="http://www.inkscape.org/namespaces/inkscape"
   t="1557113382055"
   class="icon"
   style=""
   viewBox="0 0 1024 1024"
   version="1.1"
   p-id="2676"
   width="200"
   height="200"
   id="svg22"
   sodipodi:docname="采购订单.svg"
   inkscape:version="0.92.4 (5da689c313, 2019-01-14)">
  <metadata
     id="metadata26">
    <rdf:RDF>
      <cc:Work
         rdf:about="">
        <dc:format>image/svg+xml</dc:format>
        <dc:type
           rdf:resource="http://purl.org/dc/dcmitype/StillImage" />
      </cc:Work>
    </rdf:RDF>
  </metadata>
  <sodipodi:namedview
     pagecolor="#ffffff"
     bordercolor="#666666"
     borderopacity="1"
     objecttolerance="10"
     gridtolerance="10"
     guidetolerance="10"
     inkscape:pageopacity="0"
     inkscape:pageshadow="2"
     inkscape:window-width="1006"
     inkscape:window-height="480"
     id="namedview24"
     showgrid="false"
     inkscape:zoom="1.4703906"
     inkscape:cx="100"
     inkscape:cy="100"
     inkscape:window-x="597"
     inkscape:window-y="233"
     inkscape:window-maximized="0"
     inkscape:current-layer="svg22" />
  <defs
     id="defs4">
    <style
       type="text/css"
       id="style2" />
  </defs>
  <path
     d="M 296.96,409.6 H 153.6 c -10.24,0 -20.48,-8.53333 -20.48,-17.06667 v 0 c 0,-8.53333 10.24,-17.06666 20.48,-17.06666 h 143.36 c 10.24,0 20.48,8.53333 20.48,17.06666 v 0 C 317.44,409.6 307.2,409.6 296.96,409.6 Z"
     p-id="2677"
     id="path6"
     inkscape:connector-curvature="0"
     style="stroke-width:1.46059346" />
  <path
     d="m 440.32,708.26667 v 0 c -10.24,0 -20.48,0 -30.72,-8.53334 L 286.72,401.06667 c 0,-8.53334 0,-17.06667 10.24,-25.6 v 0 c 10.24,0 20.48,0 30.72,8.53333 L 460.8,682.66667 c 0,17.06666 -10.24,25.6 -20.48,25.6 z"
     p-id="2678"
     id="path8"
     inkscape:connector-curvature="0"
     style="stroke-width:1.46059346" />
  <path
     d="m 747.52,716.8 h -307.2 c -10.24,0 -20.48,-8.53333 -20.48,-17.06667 v 0 c 0,-8.53333 10.24,-17.06666 20.48,-17.06666 h 307.2 c 10.24,0 20.48,8.53333 20.48,17.06666 v 0 C 768,708.26667 757.76,716.8 747.52,716.8 Z"
     p-id="2679"
     id="path10"
     inkscape:connector-curvature="0"
     style="stroke-width:1.46059346" />
  <path
     d="M 778.24,622.93333 H 409.6 L 327.68,409.6 h 532.48 z"
     p-id="2680"
     id="path12"
     inkscape:connector-curvature="0"
     style="stroke-width:1.46059346" />
  <path
     d="m 471.04,759.46667 m -30.72,0 a 30.72,25.6 0 1 0 61.44,0 30.72,25.6 0 1 0 -61.44,0 z"
     p-id="2681"
     id="path14"
     inkscape:connector-curvature="0"
     style="stroke-width:1.46059346" />
  <path
     d="m 727.04,759.46667 m -30.72,0 a 30.72,25.6 0 1 0 61.44,0 30.72,25.6 0 1 0 -61.44,0 z"
     p-id="2682"
     id="path16"
     inkscape:connector-curvature="0"
     style="stroke-width:1.46059346" />
  <path
     d="M 921.6,85.333333 H 102.4 C 40.96,85.333333 0,119.46667 0,170.66667 v 768 C 0,989.86667 40.96,1024 102.4,1024 h 819.2 c 61.44,0 102.4,-34.13333 102.4,-85.33333 v -768 c 0,-51.2 -40.96,-85.333337 -102.4,-85.333337 z M 972.8,921.6 c 0,34.13333 -30.72,68.26667 -81.92,68.26667 h -768 c -40.96,0 -81.92,-25.6 -81.92,-68.26667 V 187.73333 c 0,-34.13333 30.72,-68.26666 81.92,-68.26666 h 768 c 40.96,0 81.92,25.6 81.92,68.26666 z"
     p-id="2683"
     id="path18"
     inkscape:connector-curvature="0"
     style="stroke-width:1.46059346" />
  <path
     d="M 819.2,85.333333 H 204.8 v 0 C 204.8,34.133333 245.76,0 307.2,0 h 409.6 c 61.44,0 102.4,34.133333 102.4,85.333333 z"
     p-id="2684"
     id="path20"
     inkscape:connector-curvature="0"
     style="stroke-width:1.46059346" />
</svg>
