<?xml version="1.0" standalone="no"?><!DOCTYPE svg PUBLIC "-//W3C//DTD SVG 1.1//EN" "http://www.w3.org/Graphics/SVG/1.1/DTD/svg11.dtd"><svg t="1557196190169" class="icon" style="" viewBox="0 0 1024 1024" version="1.1" xmlns="http://www.w3.org/2000/svg" p-id="14821" xmlns:xlink="http://www.w3.org/1999/xlink" width="200" height="200"><defs><style type="text/css"></style></defs><path d="M730.027 423.688c71.591 22.78 151.318 6.509 208.265-50.439 53.691-53.691 71.591-130.165 52.066-198.503l-115.522 115.522-113.893-30.914-30.914-113.893 115.522-115.522c-68.337-17.9-144.81-1.628-198.503 52.066s-71.591 130.165-52.066 198.503l-310.77 315.651c-68.337-19.527-144.81-1.628-198.503 52.066-53.691 53.691-71.591 130.165-52.066 198.503l115.522-115.522 113.893 30.914 30.914 113.893-115.522 115.522c68.337 17.9 144.81 1.628 198.503-52.066 56.947-56.947 73.219-136.675 50.439-208.265l302.634-307.517z" fill="#2c2c2c" p-id="14822"></path><path d="M756.060 514.802c-133.42 0-242.433 109.014-242.433 242.433s109.014 242.433 242.433 242.433 242.433-109.014 242.433-242.433c0-135.049-109.014-242.433-242.433-242.433zM708.876 869.502l-95.997-95.997 34.17-34.17 60.202 60.202 157.825-157.825 34.17 34.17-190.367 193.622z" fill="#2c2c2c" p-id="14823"></path></svg>