<?xml version="1.0" standalone="no"?><!DOCTYPE svg PUBLIC "-//W3C//DTD SVG 1.1//EN" "http://www.w3.org/Graphics/SVG/1.1/DTD/svg11.dtd"><svg t="1557113548459" class="icon" style="" viewBox="0 0 1024 1024" version="1.1" xmlns="http://www.w3.org/2000/svg" p-id="3377" xmlns:xlink="http://www.w3.org/1999/xlink" width="200" height="200"><defs><style type="text/css"></style></defs><path d="M703.401869 344.523364c51.040498 0 92.510903-41.470405 92.510904-89.320872 0-47.850467-41.470405-89.320872-92.510904-89.320872-47.850467 0-89.320872 41.470405-89.320872 89.320872-3.190031 47.850467 38.280374 89.320872 89.320872 89.320872zM767.202492 255.202492c0 35.090343-28.71028 60.610592-63.800623 63.800623-35.090343 0-60.610592-28.71028-63.800623-60.610592 0-35.090343 25.520249-63.800623 60.610592-63.800623C738.492212 191.401869 767.202492 220.11215 767.202492 255.202492zM161.096573 606.105919c0 19.140187 15.950156 31.900312 31.900312 31.900312h191.401869c19.140187 0 31.900312-15.950156 31.900311-31.900312s-15.950156-31.900312-31.900311-31.900312H192.996885c-19.140187 0-31.900312 12.760125-31.900312 31.900312z" p-id="3378"></path><path d="M920.323988 752.847352c-15.950156 0-31.900312 12.760125-31.900312 28.71028v60.610592c0 63.800623-54.23053 118.031153-118.031153 118.031153H212.137072c-63.800623 0-118.031153-51.040498-118.031153-118.031153V200.971963c0-63.800623 54.23053-118.031153 118.031153-118.031153h66.990654c9.570093 0 15.950156-3.190031 22.330218-9.570093 6.380062-6.380062 9.570093-12.760125 9.570093-22.330219 0-15.950156-15.950156-28.71028-31.900311-28.71028h-63.800623C113.246106 22.330218 33.495327 102.080997 33.495327 200.971963v644.386292c0 98.890966 82.94081 178.641745 178.641745 178.641745V1020.809969h558.255451c98.890966 0 178.641745-79.750779 178.641745-178.641745v-60.610592c0-12.760125-12.760125-25.520249-28.71028-28.71028z" p-id="3379"></path><path d="M652.361371 685.856698c12.760125 12.760125 31.900312 19.140187 51.040498 19.140187 22.330218 0 44.660436-9.570093 57.420561-25.520249 86.130841-98.890966 229.682243-283.912773 229.682243-395.563863C987.314642 127.601246 862.903427 3.190031 706.5919 0H703.401869c-156.311526 0-287.102804 127.601246-290.292835 283.912773 0 114.841121 143.551402 296.672897 229.682243 395.563863 3.190031 0 6.380062 3.190031 9.570094 6.380062z m47.850467-634.8162h3.190031c127.601246 0 232.872274 105.271028 232.872274 232.872275 0 70.180685-82.94081 204.161994-220.112149 363.663551-3.190031 3.190031-9.570093 6.380062-15.950156 6.380062s-12.760125-3.190031-19.140187-6.380062C543.900312 491.264798 464.149533 354.093458 464.149533 287.102804c3.190031-133.981308 108.461059-236.062305 236.062305-236.062306zM192.996885 765.607477c-19.140187 0-31.900312 15.950156-31.900312 31.900311s15.950156 31.900312 31.900312 31.900312h319.003115c19.140187 0 31.900312-15.950156 31.900312-31.900312s-15.950156-31.900312-31.900312-31.900311H192.996885z" p-id="3380"></path></svg>