<?xml version="1.0" encoding="UTF-8" standalone="no"?>
<svg
   xmlns:dc="http://purl.org/dc/elements/1.1/"
   xmlns:cc="http://creativecommons.org/ns#"
   xmlns:rdf="http://www.w3.org/1999/02/22-rdf-syntax-ns#"
   xmlns:svg="http://www.w3.org/2000/svg"
   xmlns="http://www.w3.org/2000/svg"
   xmlns:sodipodi="http://sodipodi.sourceforge.net/DTD/sodipodi-0.dtd"
   xmlns:inkscape="http://www.inkscape.org/namespaces/inkscape"
   t="1551590956136"
   class="icon"
   style=""
   viewBox="0 0 1025 1024"
   version="1.1"
   p-id="9613"
   width="200.1953125"
   height="200"
   id="svg22"
   sodipodi:docname="模具.svg"
   inkscape:version="0.92.4 (5da689c313, 2019-01-14)">
  <metadata
     id="metadata26">
    <rdf:RDF>
      <cc:Work
         rdf:about="">
        <dc:format>image/svg+xml</dc:format>
        <dc:type
           rdf:resource="http://purl.org/dc/dcmitype/StillImage" />
        <dc:title></dc:title>
      </cc:Work>
    </rdf:RDF>
  </metadata>
  <sodipodi:namedview
     pagecolor="#ffffff"
     bordercolor="#666666"
     borderopacity="1"
     objecttolerance="10"
     gridtolerance="10"
     guidetolerance="10"
     inkscape:pageopacity="0"
     inkscape:pageshadow="2"
     inkscape:window-width="724"
     inkscape:window-height="480"
     id="namedview24"
     showgrid="false"
     inkscape:zoom="1.18"
     inkscape:cx="100.09766"
     inkscape:cy="100"
     inkscape:window-x="697"
     inkscape:window-y="206"
     inkscape:window-maximized="0"
     inkscape:current-layer="svg22" />
  <defs
     id="defs4">
    <style
       type="text/css"
       id="style2" />
  </defs>
  <path
     d="M 989.82769,5.4635098 H 34.123146 C 15.249286,5.4635098 -2.2e-5,24.438327 -2.2e-5,47.928213 V 981.5353 c 0,23.4899 15.249309,42.4647 34.123168,42.4647 H 989.82769 c 18.87381,0 34.12321,-18.9748 34.12321,-42.4647 V 47.929465 c 0,-23.489886 -15.2483,-42.4659552 -34.12321,-42.4659552 z M 959.95431,945.65152 H 63.997547 l -10e-7,-861.838278 H 959.95431 Z"
     p-id="9614"
     id="path6"
     inkscape:connector-curvature="0"
     style="stroke-width:1.10646331" />
  <path
     d="m 863.95898,399.38558 c -17.68682,0 -31.99878,14.31196 -31.99878,31.99879 0,17.68682 14.31196,31.99878 31.99878,31.99878 17.68683,0 31.99879,-14.31093 31.99879,-31.99878 -10e-6,-17.68683 -14.31197,-31.99879 -31.99879,-31.99879 z"
     p-id="9615"
     id="path8"
     inkscape:connector-curvature="0" />
  <path
     d="m 735.96589,463.38213 c 17.68682,0 31.99878,-14.31094 31.99878,-31.99879 0,-17.6858 -14.31196,-31.99878 -31.99878,-31.99878 -17.68683,0 -31.99879,14.31196 -31.99879,31.99878 0,17.68683 14.31196,31.99879 31.99879,31.99879 z"
     p-id="9616"
     id="path10"
     inkscape:connector-curvature="0" />
  <path
     d="m 863.95898,527.3797 c -17.68682,0 -31.99878,14.31094 -31.99878,31.99878 0,17.68785 14.31196,31.99879 31.99878,31.99879 17.68683,0 31.99879,-14.31094 31.99879,-31.99879 0,-17.68784 -14.31197,-31.99878 -31.99879,-31.99878 z"
     p-id="9617"
     id="path12"
     inkscape:connector-curvature="0" />
  <path
     d="m 735.96589,591.37625 c 17.68682,0 31.99878,-14.31094 31.99878,-31.99879 0,-17.68785 -14.31196,-31.99878 -31.99878,-31.99878 -17.68683,0 -31.99879,14.31093 -31.99879,31.99878 0,17.68785 14.31196,31.99879 31.99879,31.99879 z"
     p-id="9618"
     id="path14"
     inkscape:connector-curvature="0" />
  <path
     d="m 735.96589,719.37036 c 17.68682,0 31.99878,-14.31196 31.99878,-31.99878 0,-17.68683 -14.31196,-31.99981 -31.99878,-31.99981 -17.68683,0 -31.99879,14.31196 -31.99879,31.99981 0,17.6858 14.31196,31.99878 31.99879,31.99878 z"
     p-id="9619"
     id="path16"
     inkscape:connector-curvature="0" />
  <path
     d="m 165.3683,832.01036 h 373.2315 c 20.68613,0 37.37319,-19.98315 37.37319,-44.61805 V 251.83838 c 0,-24.63614 -16.68706,-44.61804 -37.37319,-44.61804 H 165.3683 c -20.68613,0 -37.37318,19.9819 -37.37318,44.61804 v 535.55393 c 0,24.6349 16.68603,44.61805 37.37318,44.61805 z m -5.37542,-580.17198 c 0,-3.05079 2.40579,-5.56835 5.3744,-5.56835 h 373.23149 c 2.96862,0 5.37441,2.51756 5.37441,5.56835 v 535.55393 c 0,3.0508 -2.40682,5.56836 -5.37441,5.56836 H 165.36728 c -2.96861,0 -5.3744,-2.51756 -5.3744,-5.56836 z"
     p-id="9620"
     id="path18"
     inkscape:connector-curvature="0"
     style="stroke-width:1.10469413" />
  <path
     d="M 735.96589,271.39044 H 863.96 c 17.68683,0 31.99879,-14.31093 31.99879,-31.99878 0,-17.6858 -14.31196,-31.99879 -31.99879,-31.99879 H 735.96589 c -17.68683,0 -31.99879,14.31196 -31.99879,31.99879 0,17.68785 14.31196,31.99878 31.99879,31.99878 z"
     p-id="9621"
     id="path20"
     inkscape:connector-curvature="0" />
</svg>
