<?xml version="1.0" encoding="UTF-8" standalone="no"?>
<svg
   xmlns:dc="http://purl.org/dc/elements/1.1/"
   xmlns:cc="http://creativecommons.org/ns#"
   xmlns:rdf="http://www.w3.org/1999/02/22-rdf-syntax-ns#"
   xmlns:svg="http://www.w3.org/2000/svg"
   xmlns="http://www.w3.org/2000/svg"
   xmlns:sodipodi="http://sodipodi.sourceforge.net/DTD/sodipodi-0.dtd"
   xmlns:inkscape="http://www.inkscape.org/namespaces/inkscape"
   t="1550645733129"
   class="icon"
   style=""
   viewBox="0 0 1024 1024"
   version="1.1"
   p-id="4995"
   width="200"
   height="200"
   id="svg28"
   sodipodi:docname="客户管理.svg"
   inkscape:version="0.92.4 (5da689c313, 2019-01-14)">
  <metadata
     id="metadata32">
    <rdf:RDF>
      <cc:Work
         rdf:about="">
        <dc:format>image/svg+xml</dc:format>
        <dc:type
           rdf:resource="http://purl.org/dc/dcmitype/StillImage" />
      </cc:Work>
    </rdf:RDF>
  </metadata>
  <sodipodi:namedview
     pagecolor="#ffffff"
     bordercolor="#666666"
     borderopacity="1"
     objecttolerance="10"
     gridtolerance="10"
     guidetolerance="10"
     inkscape:pageopacity="0"
     inkscape:pageshadow="2"
     inkscape:window-width="539"
     inkscape:window-height="417"
     id="namedview30"
     showgrid="false"
     inkscape:zoom="4.18"
     inkscape:cx="100"
     inkscape:cy="100"
     inkscape:window-x="847"
     inkscape:window-y="316"
     inkscape:window-maximized="0"
     inkscape:current-layer="svg28" />
  <defs
     id="defs24">
    <style
       type="text/css"
       id="style22" />
  </defs>
  <path
     d="M631.488 597.333333c-56.938667-40.128-127.786667-64-204.821333-64-181.738667 0-328.874667 132.757333-340.586667 298.666667H426.666667v-149.333333c0-47.146667 38.272-85.333333 85.269333-85.333334H631.466667z m125.994667 0h181.248A85.333333 85.333333 0 0 1 1024 682.666667v256c0 47.146667-38.272 85.333333-85.269333 85.333333H511.936A85.333333 85.333333 0 0 1 426.666667 938.666667v-21.333334H5.290667A388.352 388.352 0 0 1 0 853.333333c0-177.258667 119.765333-327.936 286.634667-382.997333A255.786667 255.786667 0 0 1 170.666667 256C170.666667 114.624 285.290667 0 426.666667 0s256 114.624 256 256a255.786667 255.786667 0 0 1-115.968 214.336c75.477333 24.896 141.312 69.354667 190.784 126.997333zM512 917.290667c0 11.797333 9.706667 21.376 21.162667 21.376h384.426666c11.669333 0 21.141333-9.728 21.12-21.376L938.666667 704.042667c0-11.797333-9.706667-21.376-21.162667-21.376h-384.426667c-11.669333 0-21.141333 9.728-21.12 21.376L512 917.290667z m42.666667-159.957334c0-17.664 14.229333-32 32.106666-32h277.12a31.978667 31.978667 0 1 1 0 64h-277.12A31.978667 31.978667 0 0 1 554.666667 757.333333z m0 106.666667c0-17.664 14.229333-32 32.106666-32h277.12a31.978667 31.978667 0 1 1 0 64h-277.12A31.978667 31.978667 0 0 1 554.666667 864zM426.666667 426.666667a170.666667 170.666667 0 1 0 0-341.333334 170.666667 170.666667 0 0 0 0 341.333334z"
     p-id="4996"
     id="path26"
     style="fill:#f9f9f9" />
</svg>
