<?xml version="1.0" standalone="no"?><!DOCTYPE svg PUBLIC "-//W3C//DTD SVG 1.1//EN" "http://www.w3.org/Graphics/SVG/1.1/DTD/svg11.dtd"><svg t="1557066759971" class="icon" style="" viewBox="0 0 1024 1024" version="1.1" xmlns="http://www.w3.org/2000/svg" p-id="22916" xmlns:xlink="http://www.w3.org/1999/xlink" width="200" height="200"><defs><style type="text/css"></style></defs><path d="M1024 1024V0H0v1024h1024zM762.795325 612.119427l-204.86774 203.558103a64.397971 64.397971 0 0 1-21.202557 14.135039c-7.157839 2.935391-14.789857 4.245028-22.376715 4.561147-0.858037 0-1.535436 0.429019-2.348313 0.429018-0.496759 0-0.948357-0.248379-1.422536-0.316119a63.494774 63.494774 0 0 1-44.39215-18.673605h-0.02258l-205.003219-203.693583a64.78183 64.78183 0 1 1 91.651951-91.629372l94.406704 93.819625V254.001676a64.80441 64.80441 0 1 1 129.58624 0v360.240264l94.361544-93.751885a64.80441 64.80441 0 1 1 91.629371 91.629372z" fill="#1698d5" p-id="22917"></path></svg>