<?xml version="1.0" encoding="UTF-8" standalone="no"?>
<svg
   xmlns:dc="http://purl.org/dc/elements/1.1/"
   xmlns:cc="http://creativecommons.org/ns#"
   xmlns:rdf="http://www.w3.org/1999/02/22-rdf-syntax-ns#"
   xmlns:svg="http://www.w3.org/2000/svg"
   xmlns="http://www.w3.org/2000/svg"
   xmlns:sodipodi="http://sodipodi.sourceforge.net/DTD/sodipodi-0.dtd"
   xmlns:inkscape="http://www.inkscape.org/namespaces/inkscape"
   t="1551590767550"
   class="icon"
   style=""
   viewBox="0 0 1024 1024"
   version="1.1"
   p-id="4149"
   width="200"
   height="200"
   id="svg8"
   sodipodi:docname="零件.svg"
   inkscape:version="0.92.4 (5da689c313, 2019-01-14)">
  <metadata
     id="metadata12">
    <rdf:RDF>
      <cc:Work
         rdf:about="">
        <dc:format>image/svg+xml</dc:format>
        <dc:type
           rdf:resource="http://purl.org/dc/dcmitype/StillImage" />
      </cc:Work>
    </rdf:RDF>
  </metadata>
  <sodipodi:namedview
     pagecolor="#ffffff"
     bordercolor="#666666"
     borderopacity="1"
     objecttolerance="10"
     gridtolerance="10"
     guidetolerance="10"
     inkscape:pageopacity="0"
     inkscape:pageshadow="2"
     inkscape:window-width="724"
     inkscape:window-height="480"
     id="namedview10"
     showgrid="false"
     inkscape:zoom="1.18"
     inkscape:cx="100"
     inkscape:cy="100"
     inkscape:window-x="762"
     inkscape:window-y="341"
     inkscape:window-maximized="0"
     inkscape:current-layer="svg8" />
  <defs
     id="defs4">
    <style
       type="text/css"
       id="style2" />
  </defs>
  <path
     d="m 684.35085,463.33149 v 107.19725 c 0,3.89303 -1.27658,7.78606 -3.70208,11.26198 -2.42549,3.4759 -5.36161,5.83953 -8.55305,5.97857 l -82.46678,13.90366 c -3.95738,13.48656 -9.57432,28.22443 -16.97846,44.07463 12.12748,18.49187 27.95701,40.5987 47.87158,66.59855 2.4255,4.31013 3.70207,8.06413 3.70207,11.54003 0,4.58822 -1.27657,8.20317 -3.70207,10.84486 -8.17007,11.54005 -22.8507,28.91963 -43.9142,51.86068 -21.19114,23.08008 -35.10582,34.48108 -41.61636,34.48108 -3.95737,0 -7.5318,-1.39036 -11.23386,-4.03206 l -61.14797,-51.9997 c -13.02107,7.36894 -26.68044,13.34752 -40.97808,17.79669 -3.95739,41.71099 -7.91478,71.60388 -12.25513,89.81768 -2.42549,9.31545 -7.78711,13.90366 -15.95719,13.90366 h -98.80695 c -3.95739,0 -7.40414,-1.5294 -10.59558,-4.44917 -3.19144,-2.91977 -4.97865,-6.11761 -5.36162,-10.14968 l -12.25513,-88.56634 c -12.12746,-3.89303 -25.40385,-9.87161 -39.9568,-17.7967 l -62.93519,51.5826 c -2.42549,2.6417 -5.9999,4.03207 -10.59557,4.03207 -3.95738,0 -7.5318,-1.52941 -11.23387,-4.58821 -51.063022,-51.44356 -76.594534,-82.17067 -76.594534,-92.73746 0,-3.4759 1.276575,-7.2299 3.702069,-10.84485 3.574411,-5.42243 10.850893,-15.5721 21.829443,-30.7271 10.978542,-15.01595 19.403942,-26.69504 24.893222,-35.45434 -8.17008,-16.96249 -14.29764,-32.67362 -18.510349,-47.55053 L 16.191181,585.40567 C 12.616769,584.98856 9.5529866,583.32012 7.1274935,579.8442 4.7019993,576.50732 3.4254238,572.75334 3.4254238,568.58223 V 461.38497 c 0,-3.89303 1.2765755,-7.78605 3.7020697,-11.26196 2.4254931,-3.61495 5.3616175,-5.83954 8.5530565,-5.97859 l 82.466785,-13.90366 c 3.957385,-13.48655 9.574315,-28.22444 16.978455,-44.07462 -12.12746,-18.49186 -27.957006,-40.59869 -47.871586,-66.59855 -2.425494,-4.31014 -3.702069,-8.06412 -3.702069,-11.54005 0,-4.58821 1.276575,-8.48123 3.702069,-11.54003 7.787111,-11.54004 22.340073,-28.91963 43.658876,-51.5826 21.31882,-22.66298 35.2335,-34.20302 41.99935,-34.20302 3.95737,0 7.5318,1.39037 11.23386,4.03207 l 61.14797,52.13874 c 12.12748,-6.95184 25.78683,-13.20848 40.97808,-18.49187 3.95739,-41.711 7.91477,-71.32581 12.25513,-89.1225 2.42549,-9.31545 7.7871,-13.90366 15.95719,-13.90366 h 98.93461 c 3.95739,0 7.40414,1.5294 10.59558,4.44917 3.19144,2.91976 4.97864,6.25664 5.36161,10.14967 l 12.25513,88.56635 c 12.12746,3.89302 25.40385,9.8716 39.95682,17.79669 l 62.80752,-51.58259 c 2.80847,-2.6417 6.38287,-4.03207 10.59557,-4.03207 3.95738,0 7.5318,1.5294 11.23387,4.58821 51.06302,51.44356 76.59453,82.17066 76.59453,92.73744 0,3.05881 -1.27657,6.67376 -3.70206,10.84486 -4.2127,6.11762 -11.7445,16.6844 -22.34008,31.28326 -10.59558,14.59884 -18.51035,26.27792 -23.99963,34.75916 8.17009,18.49187 14.17,34.34205 18.12738,47.55052 l 80.80725,13.34753 c 3.5744,0.83421 6.63819,2.78073 9.06367,5.97857 2.17018,3.47592 3.57442,7.2299 3.57442,11.54005 z M 440.14194,620.86001 c 26.68043,-29.05866 39.95682,-63.81782 39.95682,-104.97267 0,-41.15485 -13.40405,-75.77498 -39.95682,-104.97268 -26.68043,-29.05864 -58.59482,-43.51846 -96.38146,-43.51846 -37.78664,0 -69.57337,14.45982 -96.38145,43.51846 -26.68044,29.05866 -39.95682,63.81783 -39.95682,104.97268 0,41.15485 13.27638,75.77498 39.95682,104.97267 26.68042,29.05866 58.59481,43.51847 96.38145,43.51847 37.78664,0 69.82868,-14.59885 96.38146,-43.51847 z M 1024.8135,178.8625 v 81.1974 c 0,6.11761 -26.55271,12.23522 -79.27529,17.79669 -4.21269,10.42776 -9.57432,20.43839 -15.95719,30.03193 18.12737,43.6575 26.93574,70.35253 26.93574,79.94606 0,1.52941 -0.76594,2.91977 -2.04251,4.03207 -43.40358,27.39022 -65.10535,41.15485 -65.99896,41.15485 -2.80848,0 -10.97855,-9.03739 -24.3826,-27.11215 -13.40404,-18.07477 -22.72305,-31.28325 -27.57403,-39.34737 -7.14882,0.83422 -12.38279,1.25132 -15.95719,1.25132 -3.70208,0 -8.80838,-0.4171 -15.9572,-1.25132 -4.97864,8.06412 -14.16999,21.13356 -27.57403,39.34737 -13.40405,18.2138 -21.57413,27.11215 -24.38261,27.11215 -0.76594,0 -22.72304,-13.6256 -65.99895,-41.15485 -1.40423,-1.25133 -2.04252,-2.50266 -2.04252,-4.03207 0,-9.59353 9.06369,-36.28856 26.93575,-79.94606 -6.38288,-9.59354 -11.7445,-19.74322 -15.9572,-30.03193 -52.72257,-5.83954 -79.27534,-11.81811 -79.27534,-17.79669 v -81.1974 c 0,-6.11761 26.55277,-12.23523 79.27534,-17.79669 4.59568,-11.12293 9.95729,-21.13357 15.9572,-30.03192 -18.12738,-43.657505 -26.93575,-70.352546 -26.93575,-79.946072 0,-1.529404 0.76595,-2.919766 2.04252,-4.032067 1.40423,-0.834218 7.53179,-4.588212 18.51035,-11.540045 10.97855,-6.951833 21.44646,-13.486551 31.40375,-19.743197 9.95729,-6.1176154 15.31891,-9.3154536 15.95721,-9.3154536 2.80847,0 10.97854,9.0373816 24.38259,26.8340726 13.40403,17.79669 22.72305,31.005168 27.57403,39.069291 7.14883,-0.834217 12.38278,-1.25132 15.95719,-1.25132 3.70207,0 8.80838,0.417103 15.95719,1.25132 18.12738,-27.390217 34.33989,-49.079932 48.89286,-64.9301162 l 3.19144,-1.2513197 c 1.40423,0 23.36133,13.4865509 65.99896,40.5986949 1.40422,1.251332 2.04251,2.502663 2.04251,4.032067 0,9.593526 -9.06368,36.288568 -26.93574,79.946065 5.9999,8.89836 11.36151,18.90898 15.95719,30.03192 52.72258,5.83954 79.27529,11.95716 79.27529,18.07477 z m 0,593.13035 v 81.1974 c 0,6.11762 -26.55271,12.23523 -79.27529,17.79669 -4.21269,10.42775 -9.57432,20.4384 -15.95719,30.03193 18.12737,43.6575 26.93574,70.35254 26.93574,79.94607 0,1.5294 -0.76594,2.91977 -2.04251,4.03206 -43.40358,27.3903 -65.10535,41.1549 -65.99896,41.1549 -2.80848,0 -10.97855,-9.1764 -24.3826,-27.1122 -13.40404,-18.07476 -22.72305,-31.28324 -27.57403,-39.34738 -7.14882,0.83423 -12.38279,1.25134 -15.95719,1.25134 -3.70208,0 -8.80838,-0.41711 -15.9572,-1.25134 -4.97864,8.06414 -14.16999,21.13359 -27.57403,39.34738 -13.40405,18.0748 -21.57413,27.1122 -24.38261,27.1122 -0.76594,0 -22.72304,-13.7646 -65.99895,-41.1549 -1.40423,-1.25133 -2.04252,-2.50266 -2.04252,-4.03206 0,-9.59353 9.06369,-36.28857 26.93575,-79.94607 -6.38288,-9.59353 -11.7445,-19.74321 -15.9572,-30.03193 -52.72257,-5.83952 -79.27534,-11.81811 -79.27534,-17.79669 v -81.1974 c 0,-6.11762 26.55277,-12.23523 79.27534,-17.79669 4.59568,-11.12293 9.95729,-21.13357 15.9572,-30.03192 -18.12738,-43.6575 -26.93575,-70.35255 -26.93575,-79.94607 0,-1.5294 0.76595,-2.91977 2.04252,-4.03206 1.40423,-0.83423 7.53179,-4.58821 18.51035,-11.54004 10.97855,-6.95183 21.44646,-13.48656 31.40375,-19.74322 9.95729,-6.11761 15.31891,-9.31545 15.95721,-9.31545 2.80847,0 10.97854,9.03739 24.38259,26.83408 13.40403,17.79669 22.72305,31.00516 27.57403,39.0693 7.14883,-0.83423 12.38278,-1.25133 15.95719,-1.25133 3.70207,0 8.80838,0.4171 15.95719,1.25133 18.12738,-27.39022 34.33989,-49.07994 48.89286,-64.93012 l 3.19144,-1.25132 c 1.40423,0 23.36133,13.48654 65.99896,40.59869 1.40422,1.25134 2.04251,2.50266 2.04251,4.03207 0,9.59352 -9.06368,36.28856 -26.93574,79.94606 5.9999,8.89836 11.36151,18.90899 15.95719,30.03193 52.72258,5.83953 79.27529,11.81811 79.27529,18.07476 z M 888.60295,219.32217 c 0,-20.02128 -6.76586,-37.40086 -20.1699,-52.13875 -13.40404,-14.59885 -29.4889,-21.96779 -47.87158,-21.96779 -18.38269,0 -34.33989,7.36894 -47.8716,21.96779 -13.40404,14.73789 -20.16988,32.11747 -20.16988,52.13875 0,20.43838 6.63819,37.957 19.91458,52.27778 13.27638,14.45981 29.36123,21.68971 47.99923,21.68971 18.63801,0 34.85052,-7.2299 47.99925,-21.68971 13.27638,-14.18174 20.1699,-31.8394 20.1699,-52.27778 z m 0,593.26939 c 0,-20.02128 -6.76586,-37.40087 -20.1699,-52.13875 -13.40404,-14.59885 -29.4889,-21.96779 -47.87158,-21.96779 -18.38269,0 -34.33989,7.36894 -47.8716,21.96779 -13.40404,14.59884 -20.16988,32.11747 -20.16988,52.13875 0,20.43838 6.63819,37.957 19.91458,52.27777 13.27638,14.32078 29.36123,21.68972 47.99923,21.68972 18.63801,0 34.85052,-7.2299 47.99925,-21.68972 13.27638,-14.32077 20.1699,-31.97843 20.1699,-52.27777 z"
     p-id="4150"
     id="path6"
     inkscape:connector-curvature="0"
     style="stroke-width:1.33225667" />
</svg>
