<?xml version="1.0" encoding="UTF-8" standalone="no"?>
<svg
   xmlns:dc="http://purl.org/dc/elements/1.1/"
   xmlns:cc="http://creativecommons.org/ns#"
   xmlns:rdf="http://www.w3.org/1999/02/22-rdf-syntax-ns#"
   xmlns:svg="http://www.w3.org/2000/svg"
   xmlns="http://www.w3.org/2000/svg"
   xmlns:sodipodi="http://sodipodi.sourceforge.net/DTD/sodipodi-0.dtd"
   xmlns:inkscape="http://www.inkscape.org/namespaces/inkscape"
   t="1556333416928"
   class="icon"
   style=""
   viewBox="0 0 1024 1024"
   version="1.1"
   p-id="4031"
   width="200"
   height="200"
   id="svg8"
   sodipodi:docname="生产人员.svg"
   inkscape:version="0.92.4 (5da689c313, 2019-01-14)">
  <metadata
     id="metadata12">
    <rdf:RDF>
      <cc:Work
         rdf:about="">
        <dc:format>image/svg+xml</dc:format>
        <dc:type
           rdf:resource="http://purl.org/dc/dcmitype/StillImage" />
      </cc:Work>
    </rdf:RDF>
  </metadata>
  <sodipodi:namedview
     pagecolor="#ffffff"
     bordercolor="#666666"
     borderopacity="1"
     objecttolerance="10"
     gridtolerance="10"
     guidetolerance="10"
     inkscape:pageopacity="0"
     inkscape:pageshadow="2"
     inkscape:window-width="1680"
     inkscape:window-height="987"
     id="namedview10"
     showgrid="false"
     inkscape:zoom="1.18"
     inkscape:cx="100"
     inkscape:cy="100"
     inkscape:window-x="-8"
     inkscape:window-y="-8"
     inkscape:window-maximized="1"
     inkscape:current-layer="svg8" />
  <defs
     id="defs4">
    <style
       type="text/css"
       id="style2" />
  </defs>
  <path
     d="M 686.01905,599.31429 C 777.14285,554.28571 840.53333,475.77143 851.2,384 H 896 c 23.6191,0 42.6667,-14.28571 42.6667,-32 0,-17.71429 -19.0476,-32 -42.6667,-32 C 896,143.31429 747.73333,0 512,0 276.26667,0 128,143.31429 128,320 c -23.61905,0 -42.66667,14.28571 -42.66667,32 0,17.71429 19.04762,32 42.66667,32 h 44.8 c 10.51428,91.77143 74.05715,170.28571 165.02857,215.31429 C 140.95239,652.8 0,793.82857 0,960 0,976.34286 8.38095,992.8 24.99048,1005.2571 41.6,1017.7143 63.54285,1024 85.33333,1024 H 938.6667 c 21.7905,0 43.7333,-6.2857 60.3428,-18.7429 C 1015.6191,992.8 1024,976.34286 1024,960 1024,793.82857 883.0476,652.8 686.01905,599.31429 Z M 633.6,82.971429 608.91428,192 H 413.56191 L 389.33333,83.314286 C 425.44761,70.971429 466.28572,64 512,64 c 45.25715,0 85.79048,6.971429 121.6,18.971429 z m -321.52381,41.485711 17.37142,78.05715 C 336.30476,233.37143 371.96191,256 413.56191,256 h 195.2 c 41.6,0 77.10476,-22.51429 84.11428,-53.25714 l 17.98096,-79.08572 C 774.70476,170.62857 810.66667,240.8 810.66667,320 H 213.33333 c 0,-78.85714 35.50476,-148.57143 98.74286,-195.54286 z M 85.33333,960 c 0,-134.05714 113.21906,-254.85714 281.6,-300.57143 30.32382,-8.22857 51.96191,-28.57143 55.61906,-52.68571 3.80952,-24 -10.81906,-47.65715 -37.79048,-60.91429 C 313.6,510.62857 269.86667,451.08571 259.96191,384 h 503.77142 c -9.75238,67.08571 -53.48572,126.62857 -124.8,161.82857 -26.97142,13.37143 -41.6,36.91429 -37.79048,60.91429 3.80954,24 25.29524,44.45714 55.61906,52.68571 C 825.44761,705.14286 938.6667,825.94286 938.6667,960 Z"
     p-id="4032"
     id="path6"
     inkscape:connector-curvature="0"
     style="fill:#333333;stroke-width:1.3196578" />
</svg>
