<?xml version="1.0" standalone="no"?><!DOCTYPE svg PUBLIC "-//W3C//DTD SVG 1.1//EN" "http://www.w3.org/Graphics/SVG/1.1/DTD/svg11.dtd"><svg t="1555987232544" class="icon" style="" viewBox="0 0 1024 1024" version="1.1" xmlns="http://www.w3.org/2000/svg" p-id="1140" xmlns:xlink="http://www.w3.org/1999/xlink" width="200" height="200"><defs><style type="text/css"></style></defs><path d="M963.24044498 758.44670351l-189.17387992-123.22335073c-22.56202155-12.14878053-45.1240451-13.88432204-64.21498564-3.47108103-17.35540102 10.41324101-27.76864205 31.23972305-27.76864204 57.27282565v244.71116401c0 26.03310254 10.41324101 46.85958459 27.76864204 57.27282563 8.67770153 5.2066205 17.35540102 6.94216 26.03310255 6.94215999 12.14878053 0 24.29756306-3.47108102 38.18188309-12.14878053l185.70279888-121.48781125c22.56202155-12.14878053 34.7108041-32.97526254 34.7108041-53.80174662 3.47108102-19.09094256-8.67770153-38.18188307-31.23972306-52.06620512z m-27.76864409 62.47944613l-185.70279686 121.48781328c-6.94216 3.47108102-12.14878053 3.47108102-12.14878256 3.47107902s-3.47108102-3.47108102-3.47107898-12.14878053V689.0250974c0-8.67770153 1.7355395-12.14878053 1.73553948-12.14878053h1.7355395c1.7355395 0 5.2066205 0 8.67770154 3.47107896l187.4383384 123.22335279h1.73553948c6.94216 3.47108102 8.67770153 6.94216 8.67770153 8.67770152 1.7355395 0 0 3.47108102-8.67770153 8.6776995zM730.67806147 423.4874513c71.15714765 22.56202155 150.99199482 6.94216 208.26482045-50.33066559 53.8017446-53.8017446 71.15714765-130.16551278 52.06620512-197.85157944l-116.28119077 116.28119276-112.81011173-31.23972307-31.23972307-112.81011173 116.28119074-116.28119076c-67.68606667-19.09094256-144.04983482-1.7355395-197.85157943 52.06620513-53.8017446 53.8017446-71.15714765 130.16551278-52.06620511 199.58711893l-312.39723068 312.39723066c-69.42160615-19.09094256-145.78537431-1.7355395-199.58711891 52.06620509-53.8017446 53.8017446-71.15714765 130.16551278-52.06620512 197.85157943l116.28119077-116.28119074 112.81011173 31.23972308 31.23972307 112.81010971-116.28119074 116.28119277c67.68606667 19.09094256 144.04983482 1.7355395 197.85157943-52.0662051 55.53728612-55.53728612 72.89268715-137.10767278 50.3306636-208.26482046l305.45507065-305.45507067z" fill="#333333" p-id="1141"></path></svg>